<?xml version="1.0" encoding="utf-8"?>
<!-- Generator: Adobe Illustrator 27.7.0, SVG Export Plug-In . SVG Version: 6.00 Build 0)  -->
<svg version="1.1" id="Layer_1" xmlns="http://www.w3.org/2000/svg" xmlns:xlink="http://www.w3.org/1999/xlink" x="0px" y="0px"
	 viewBox="0 0 3600 4500" style="enable-background:new 0 0 3600 4500;" xml:space="preserve">
<style type="text/css">
	.st0{fill:#FFFFFF;}
</style>
<g>
	<path class="st0" d="M2624.7,544.2c-47.3,0-85.7-38.4-85.7-85.7s38.4-85.7,85.7-85.7h461.1c141.5,0,270.1,57.9,363.3,151
		s151,221.7,151,363.3v451.5c0,47.3-38.4,85.7-85.7,85.7c-47.3,0-85.7-38.4-85.7-85.7V887.1c0-94.2-38.6-179.9-100.8-242.1
		c-62.1-62.1-147.9-100.8-242.1-100.8H2624.7z M3428.6,3015c0-47.3,38.4-85.7,85.7-85.7c47.3,0,85.7,38.4,85.7,85.7v443.5
		c0,141.5-57.9,270.1-151,363.3s-221.7,151-363.3,151h-464.2c-47.3,0-85.7-38.4-85.7-85.7c0-47.3,38.4-85.7,85.7-85.7h464.2
		c94.2,0,179.9-38.6,242.1-100.8c62.1-62.1,100.8-147.9,100.8-242.1V3015z M956.9,3801.4c47.3,0,85.7,38.4,85.7,85.7
		c0,47.3-38.4,85.7-85.7,85.7H514.3c-141.5,0-270.1-57.9-363.3-151S0,3600,0,3458.5V3015c0-47.3,38.4-85.7,85.7-85.7
		s85.7,38.4,85.7,85.7v443.5c0,94.2,38.6,179.9,100.8,242.1c62.1,62.1,147.9,100.8,242.1,100.8H956.9z M171.4,1331.3
		c0,47.3-38.4,85.7-85.7,85.7S0,1378.6,0,1331.3V887.1C0,745.6,57.9,617,151,523.8s221.7-151,363.3-151H970
		c47.3,0,85.7,38.4,85.7,85.7s-38.4,85.7-85.7,85.7H514.3c-94.2,0-179.9,38.6-242.1,100.8c-62.1,62.1-100.8,147.9-100.8,242.1
		V1331.3z M1060.6,1441.4L1060.6,1441.4c43.4,0,78.9,35.5,78.9,78.9V1772c0,43.4-35.5,78.9-78.9,78.9l0,0
		c-43.4,0-78.9-35.5-78.9-78.9v-251.7C981.7,1477,1017.2,1441.4,1060.6,1441.4z M1773.3,1537c0.2-47.1,38.6-85.2,85.7-85
		c47.1,0.2,85.2,38.6,85,85.7l-5,704.4c-0.3,51.4-2.8,121.8-34.6,185.3c-37.1,74.1-105.5,130.6-233.3,127.2
		c-47.1-1.1-84.5-40.2-83.4-87.4c1.1-47.1,40.2-84.5,87.4-83.4c45.3,1.2,66.9-13.4,76.6-32.7c15-30,16.3-75.7,16.5-109.6
		L1773.3,1537z M1141.4,2906.6c-27.9-38.1-19.7-91.6,18.4-119.6c38.1-27.9,91.6-19.7,119.6,18.4c16.4,22.4,35.6,42.8,57,61.2
		c104.7,90,263.7,136.9,428.8,138.9c166.7,2,336.9-42,461.9-133.5c30.8-22.5,58.5-47.8,82.6-75.9c30.7-35.9,84.7-40,120.5-9.3
		c35.9,30.7,40,84.7,9.3,120.5c-33.1,38.5-70.5,72.7-111.4,102.6c-155.7,114-363.6,168.8-565,166.4c-203.1-2.4-402.3-63-537.9-179.7
		C1193.7,2969.5,1165.5,2939.4,1141.4,2906.6z M2527.4,1441.4L2527.4,1441.4c43.4,0,78.9,35.5,78.9,78.9V1772
		c0,43.4-35.5,78.9-78.9,78.9l0,0c-43.4,0-78.9-35.5-78.9-78.9v-251.7C2448.4,1477,2483.9,1441.4,2527.4,1441.4z"/>
</g>
<text transform="matrix(1 0 0 1 -1476.8 4709.5664)" style="font-family:'HelveticaNeue-Bold'; font-size:0.6554px;">Created by Oleksandr Panasovskyi</text>
<text transform="matrix(1 0 0 1 -1476.8 4710.2217)" style="font-family:'HelveticaNeue-Bold'; font-size:0.6554px;">from the Noun Project</text>
</svg>
